<svg data-v-423bf9ae="" xmlns="http://www.w3.org/2000/svg" viewBox="0 0 412.64925373134326 60" class="font"><!----><!----><!----><g data-v-423bf9ae="" id="ccef3d11-e284-4f7d-9d92-ceac6e583246" fill="white" transform="matrix(4.776119232177734,0,0,4.776119232177734,-3.059690237045288,-46.41790771484375)"><path d="M7.79 18.02L7.79 18.02L7.79 18.02Q8.81 17.58 9.39 16.69L9.39 16.69L9.39 16.69Q9.97 15.80 9.97 14.72L9.97 14.72L9.97 14.72Q9.97 13.64 9.68 12.95L9.68 12.95L9.68 12.95Q9.40 12.25 8.90 11.80L8.90 11.80L8.90 11.80Q8.41 11.35 7.66 11.07L7.66 11.07L7.66 11.07Q6.31 10.55 4.14 10.55L4.14 10.55L4.14 10.55Q3.16 10.55 3.16 10.71L3.16 10.71L3.16 18.35L3.16 18.35Q4.24 18.46 5.51 18.46L5.51 18.46L5.51 18.46Q6.77 18.46 7.79 18.02ZM10.06 11.22L10.06 11.22Q10.72 11.73 11.10 12.49L11.10 12.49L11.10 12.49Q11.49 13.25 11.49 14.22L11.49 14.22L11.49 14.22Q11.49 15.18 11.19 16.01L11.19 16.01L11.19 16.01Q10.90 16.84 10.37 17.44L10.37 17.44L10.37 17.44Q9.84 18.05 9.11 18.47L9.11 18.47L9.11 18.47Q7.65 19.33 5.65 19.33L5.65 19.33L5.65 19.33Q4.95 19.31 3.20 19.31L3.20 19.31L3.20 19.31Q1.45 19.31 1.19 19.26L1.19 19.26L1.19 19.26Q0.66 19.12 0.64 18.70L0.64 18.70L0.64 18.70Q0.64 18.46 1.11 18.40L1.11 18.40L1.11 18.40Q1.33 18.37 1.40 18.33L1.40 18.33L1.40 18.33Q1.67 18.22 1.67 17.84L1.67 17.84L1.67 11.18L1.67 11.18Q1.67 10.66 1.16 10.62L1.16 10.62L1.16 10.62Q0.72 10.59 0.68 10.49L0.68 10.49L0.68 10.49Q0.64 10.40 0.64 10.24L0.64 10.24L0.64 10.24Q0.64 10.08 0.75 9.96L0.75 9.96L0.75 9.96Q0.85 9.83 1.11 9.78L1.11 9.78L1.11 9.78Q1.46 9.72 2.40 9.72L2.40 9.72L4.51 9.72L4.51 9.72Q8.13 9.72 10.06 11.22L10.06 11.22ZM13.09 10.74L13.09 10.74L13.09 10.74Q13.09 10.44 13.38 10.18L13.38 10.18L13.38 10.18Q13.67 9.91 14.02 9.91L14.02 9.91L14.02 9.91Q14.36 9.91 14.69 10.12L14.69 10.12L14.69 10.12Q15.01 10.34 15.01 10.68L15.01 10.68L15.01 10.68Q15.01 11.03 14.74 11.27L14.74 11.27L14.74 11.27Q14.46 11.50 14.07 11.50L14.07 11.50L14.07 11.50Q13.67 11.50 13.38 11.29L13.38 11.29L13.38 11.29Q13.09 11.07 13.09 10.74ZM14.52 19.32L14.52 19.32L13.93 19.33L13.93 19.33Q13.04 19.33 12.82 19.05L12.82 19.05L12.82 19.05Q12.73 18.93 12.73 18.75L12.73 18.75L12.73 18.75Q12.73 18.58 12.87 18.51L12.87 18.51L12.87 18.51Q13.00 18.44 13.17 18.44L13.17 18.44L13.17 18.44Q13.34 18.43 13.47 18.33L13.47 18.33L13.47 18.33Q13.61 18.23 13.61 18.01L13.61 18.01L13.61 14.33L13.61 14.33Q13.61 13.71 13.13 13.67L13.13 13.67L13.13 13.67Q13.08 13.66 13.00 13.65L13.00 13.65L13.00 13.65Q12.93 13.64 12.89 13.64L12.89 13.64L12.89 13.64Q12.86 13.64 12.81 13.63L12.81 13.63L12.81 13.63Q12.76 13.62 12.73 13.60L12.73 13.60L12.73 13.60Q12.71 13.59 12.68 13.57L12.68 13.57L12.68 13.57Q12.63 13.54 12.63 13.37L12.63 13.37L12.63 13.37Q12.63 13.21 12.84 13.04L12.84 13.04L12.84 13.04Q13.23 12.73 13.88 12.73L13.88 12.73L13.88 12.73Q14.48 12.73 14.58 12.78L14.58 12.78L14.58 12.78Q14.69 12.82 14.77 12.88L14.77 12.88L14.77 12.88Q14.91 12.97 14.91 13.24L14.91 13.24L14.91 18.01L14.91 18.01Q14.91 18.41 15.35 18.43L15.35 18.43L15.35 18.43Q15.79 18.46 15.79 18.79L15.79 18.79L15.79 18.79Q15.79 19.16 15.38 19.25L15.38 19.25L15.38 19.25Q15.07 19.32 14.52 19.32ZM23.15 15.07L23.15 15.07L23.15 15.07Q23.15 15.69 22.67 16.16L22.67 16.16L22.67 16.16Q21.75 17.08 20.04 17.08L20.04 17.08L20.04 17.08Q19.71 17.08 19.33 17.02L19.33 17.02L19.33 17.02Q18.96 16.95 18.86 16.94L18.86 16.94L18.86 16.93L18.86 16.93Q18.34 17.37 18.34 17.70L18.34 17.70L18.34 17.70Q18.34 18.00 18.63 18.10L18.63 18.10L18.63 18.10Q19.05 18.25 19.80 18.27L19.80 18.27L19.80 18.27Q20.54 18.28 20.96 18.29L20.96 18.29L20.96 18.29Q21.38 18.30 21.86 18.33L21.86 18.33L21.86 18.33Q22.35 18.37 22.72 18.47L22.72 18.47L22.72 18.47Q23.08 18.57 23.41 18.73L23.41 18.73L23.41 18.73Q24.06 19.07 24.06 19.89L24.06 19.89L24.06 19.89Q24.06 20.51 23.74 20.98L23.74 20.98L23.74 20.98Q23.42 21.45 22.88 21.72L22.88 21.72L22.88 21.72Q21.81 22.28 20.32 22.28L20.32 22.28L20.32 22.28Q19.04 22.28 18.06 21.92L18.06 21.92L18.06 21.92Q17.53 21.73 17.23 21.36L17.23 21.36L17.23 21.36Q16.92 20.99 16.92 20.47L16.92 20.47L16.92 20.47Q16.92 19.50 17.90 18.97L17.90 18.97L17.90 18.97Q17.64 18.72 17.54 18.49L17.54 18.49L17.54 18.49Q17.45 18.27 17.45 17.96L17.45 17.96L17.45 17.96Q17.45 17.66 17.51 17.50L17.51 17.50L17.51 17.50Q17.56 17.34 17.68 17.20L17.68 17.20L17.68 17.20Q17.83 17.02 18.24 16.71L18.24 16.71L18.24 16.71Q17.60 16.39 17.26 15.99L17.26 15.99L17.26 15.99Q16.92 15.59 16.92 14.98L16.92 14.98L16.92 14.98Q16.92 14.37 17.20 13.92L17.20 13.92L17.20 13.92Q17.49 13.47 17.95 13.20L17.95 13.20L17.95 13.20Q18.89 12.66 20.06 12.66L20.06 12.66L20.06 12.66Q20.38 12.66 21.28 12.83L21.28 12.83L21.28 12.83Q22.18 13.00 22.29 13.00L22.29 13.00L22.29 13.00Q22.90 13.00 23.00 12.39L23.00 12.39L23.00 12.39Q23.88 12.39 23.88 13.08L23.88 13.08L23.88 13.08Q23.88 13.42 23.68 13.61L23.68 13.61L23.68 13.61Q23.47 13.81 23.21 13.81L23.21 13.81L23.21 13.81Q22.95 13.81 22.65 13.78L22.65 13.78L22.65 13.78Q22.85 13.95 23.00 14.31L23.00 14.31L23.00 14.31Q23.15 14.68 23.15 15.07ZM20.08 13.25L20.08 13.25L20.08 13.25Q19.35 13.25 18.83 13.68L18.83 13.68L18.83 13.68Q18.31 14.11 18.31 14.81L18.31 14.81L18.31 14.81Q18.31 15.52 18.84 15.97L18.84 15.97L18.84 15.97Q19.37 16.42 20.14 16.42L20.14 16.42L20.14 16.42Q20.90 16.42 21.38 16.00L21.38 16.00L21.38 16.00Q21.85 15.58 21.85 14.90L21.85 14.90L21.85 14.90Q21.85 14.23 21.34 13.74L21.34 13.74L21.34 13.74Q20.82 13.25 20.08 13.25ZM20.20 21.48L20.20 21.48L20.20 21.48Q21.25 21.48 21.80 21.26L21.80 21.26L21.80 21.26Q22.35 21.03 22.56 20.74L22.56 20.74L22.56 20.74Q22.77 20.45 22.77 20.05L22.77 20.05L22.77 20.05Q22.77 19.21 19.50 19.21L19.50 19.21L19.50 19.21Q18.58 19.21 18.58 19.19L18.58 19.19L18.58 19.19Q18.06 19.71 18.06 20.19L18.06 20.19L18.06 20.19Q18.06 21.48 20.20 21.48ZM25.47 10.74L25.47 10.74L25.47 10.74Q25.47 10.44 25.76 10.18L25.76 10.18L25.76 10.18Q26.05 9.91 26.40 9.91L26.40 9.91L26.40 9.91Q26.74 9.91 27.07 10.12L27.07 10.12L27.07 10.12Q27.39 10.34 27.39 10.68L27.39 10.68L27.39 10.68Q27.39 11.03 27.12 11.27L27.12 11.27L27.12 11.27Q26.84 11.50 26.45 11.50L26.45 11.50L26.45 11.50Q26.05 11.50 25.76 11.29L25.76 11.29L25.76 11.29Q25.47 11.07 25.47 10.74ZM26.90 19.32L26.90 19.32L26.31 19.33L26.31 19.33Q25.42 19.33 25.20 19.05L25.20 19.05L25.20 19.05Q25.11 18.93 25.11 18.75L25.11 18.75L25.11 18.75Q25.11 18.58 25.25 18.51L25.25 18.51L25.25 18.51Q25.38 18.44 25.55 18.44L25.55 18.44L25.55 18.44Q25.72 18.43 25.85 18.33L25.85 18.33L25.85 18.33Q25.99 18.23 25.99 18.01L25.99 18.01L25.99 14.33L25.99 14.33Q25.99 13.71 25.50 13.67L25.50 13.67L25.50 13.67Q25.46 13.66 25.38 13.65L25.38 13.65L25.38 13.65Q25.31 13.64 25.27 13.64L25.27 13.64L25.27 13.64Q25.24 13.64 25.19 13.63L25.19 13.63L25.19 13.63Q25.14 13.62 25.11 13.60L25.11 13.60L25.11 13.60Q25.09 13.59 25.06 13.57L25.06 13.57L25.06 13.57Q25.01 13.54 25.01 13.37L25.01 13.37L25.01 13.37Q25.01 13.21 25.22 13.04L25.22 13.04L25.22 13.04Q25.61 12.73 26.26 12.73L26.26 12.73L26.26 12.73Q26.86 12.73 26.96 12.78L26.96 12.78L26.96 12.78Q27.07 12.82 27.15 12.88L27.15 12.88L27.15 12.88Q27.29 12.97 27.29 13.24L27.29 13.24L27.29 18.01L27.29 18.01Q27.29 18.41 27.73 18.43L27.73 18.43L27.73 18.43Q28.17 18.46 28.17 18.79L28.17 18.79L28.17 18.79Q28.17 19.16 27.76 19.25L27.76 19.25L27.76 19.25Q27.45 19.32 26.90 19.32ZM30.26 10.65L30.26 10.65L30.26 10.65Q29.98 10.58 29.69 10.52L29.69 10.52L29.69 10.52Q29.40 10.47 29.40 10.33L29.40 10.33L29.40 10.33Q29.40 10.19 29.49 10.08L29.49 10.08L29.49 10.08Q29.59 9.97 29.77 9.91L29.77 9.91L29.77 9.91Q29.96 9.84 30.14 9.80L30.14 9.80L30.14 9.80Q30.33 9.76 30.62 9.75L30.62 9.75L30.62 9.75Q31.02 9.72 31.60 9.72L31.60 9.72L32.79 9.72L32.79 9.72Q35.01 9.72 36.06 9.97L36.06 9.97L36.06 9.97Q37.15 10.21 37.65 10.69L37.65 10.69L37.65 10.69Q38.27 11.28 38.27 12.21L38.27 12.21L38.27 12.21Q38.27 13.58 37.44 14.26L37.44 14.26L37.44 14.26Q36.87 14.72 36.30 14.88L36.30 14.88L36.30 14.88Q35.73 15.03 35.35 15.10L35.35 15.10L35.35 15.10Q34.97 15.16 34.45 15.20L34.45 15.20L34.45 15.20Q33.66 15.26 32.52 15.26L32.52 15.26L32.09 15.26L32.09 18.14L32.09 18.14Q32.09 18.27 32.37 18.36L32.37 18.36L32.37 18.36Q32.66 18.44 32.94 18.52L32.94 18.52L32.94 18.52Q33.22 18.60 33.22 18.70L33.22 18.70L33.22 18.70Q33.22 18.93 33.11 19.06L33.11 19.06L33.11 19.06Q33.00 19.20 32.71 19.25L32.71 19.25L32.71 19.25Q32.35 19.31 31.33 19.31L31.33 19.31L31.33 19.31Q30.32 19.31 30.10 19.28L30.10 19.28L30.10 19.28Q29.41 19.20 29.40 18.77L29.40 18.77L29.40 18.77Q29.40 18.46 29.97 18.44L29.97 18.44L29.97 18.44Q30.54 18.42 30.54 18.14L30.54 18.14L30.54 10.88L30.54 10.88Q30.54 10.72 30.26 10.65ZM36.72 12.63L36.72 12.63L36.72 12.63Q36.72 10.53 33.51 10.53L33.51 10.53L33.22 10.53L33.22 10.53Q32.58 10.53 32.41 10.66L32.41 10.66L32.41 10.66Q32.22 10.79 32.20 10.86L32.20 10.86L32.20 10.86Q32.17 10.94 32.14 11.03L32.14 11.03L32.14 11.03Q32.09 11.18 32.09 11.50L32.09 11.50L32.09 14.44L32.09 14.44Q32.33 14.46 32.90 14.46L32.90 14.46L32.90 14.46Q33.48 14.46 33.94 14.43L33.94 14.43L33.94 14.43Q34.40 14.40 34.85 14.33L34.85 14.33L34.85 14.33Q35.29 14.25 35.62 14.12L35.62 14.12L35.62 14.12Q35.95 13.98 36.21 13.78L36.21 13.78L36.21 13.78Q36.72 13.38 36.72 12.63ZM40.12 14.98L40.12 14.98L40.12 14.98Q39.86 14.98 39.54 14.78L39.54 14.78L39.54 14.78Q39.22 14.58 39.22 14.26L39.22 14.26L39.22 14.26Q39.22 13.93 39.41 13.64L39.41 13.64L39.41 13.64Q39.59 13.36 39.89 13.18L39.89 13.18L39.89 13.18Q40.18 13.00 40.57 12.87L40.57 12.87L40.57 12.87Q41.28 12.65 42.10 12.65L42.10 12.65L42.10 12.65Q43.48 12.65 44.11 13.26L44.11 13.26L44.11 13.26Q44.73 13.87 44.73 15.28L44.73 15.28L44.73 17.29L44.73 17.29Q44.73 18.03 44.91 18.21L44.91 18.21L44.91 18.21Q44.96 18.26 45.21 18.33L45.21 18.33L45.21 18.33Q45.91 18.55 45.91 18.67L45.91 18.67L45.91 18.67Q45.91 19.39 44.44 19.39L44.44 19.39L44.44 19.39Q43.89 19.39 43.72 19.14L43.72 19.14L43.72 19.14Q43.55 18.89 43.54 18.25L43.54 18.25L43.54 18.25Q43.23 18.80 42.60 19.14L42.60 19.14L42.60 19.14Q41.97 19.48 41.25 19.48L41.25 19.48L41.25 19.48Q40.54 19.48 40.04 19.30L40.04 19.30L40.04 19.30Q39.54 19.11 39.23 18.70L39.23 18.70L39.23 18.70Q38.92 18.29 38.92 17.81L38.92 17.81L38.92 17.81Q38.92 17.33 39.03 17.04L39.03 17.04L39.03 17.04Q39.14 16.75 39.30 16.55L39.30 16.55L39.30 16.55Q39.46 16.35 39.75 16.19L39.75 16.19L39.75 16.19Q40.03 16.04 40.28 15.94L40.28 15.94L40.28 15.94Q40.52 15.85 40.91 15.78L40.91 15.78L40.91 15.78Q41.49 15.67 41.88 15.62L41.88 15.62L41.88 15.62Q42.27 15.58 42.28 15.57L42.28 15.57L42.28 15.57Q42.32 15.57 42.75 15.52L42.75 15.52L42.75 15.52Q43.18 15.48 43.42 15.34L43.42 15.34L43.42 15.34Q43.42 14.04 43.07 13.64L43.07 13.64L43.07 13.64Q42.77 13.30 42.06 13.30L42.06 13.30L42.06 13.30Q41.36 13.30 41.01 13.66L41.01 13.66L41.01 13.66Q40.65 14.02 40.65 14.80L40.65 14.80L40.66 14.95L40.66 14.95Q40.37 14.98 40.12 14.98ZM43.42 15.96L43.42 15.96L43.42 15.96Q42.96 16.13 42.37 16.19L42.37 16.19L42.37 16.19Q41.79 16.26 41.45 16.34L41.45 16.34L41.45 16.34Q41.12 16.43 40.89 16.56L40.89 16.56L40.89 16.56Q40.37 16.86 40.37 17.60L40.37 17.60L40.37 17.60Q40.37 18.77 41.74 18.77L41.74 18.77L41.74 18.77Q42.92 18.77 43.24 17.64L43.24 17.64L43.24 17.64Q43.42 17.00 43.42 15.96ZM49.68 18.70L49.68 18.70L49.68 18.70Q51.22 18.70 51.22 17.75L51.22 17.75L51.22 17.75Q51.22 17.04 49.83 16.64L49.83 16.64L49.83 16.64Q49.57 16.56 49.21 16.46L49.21 16.46L49.21 16.46Q48.51 16.28 48.28 16.18L48.28 16.18L48.28 16.18Q47.67 15.95 47.26 15.50L47.26 15.50L47.26 15.50Q46.84 15.06 46.84 14.45L46.84 14.45L46.84 14.45Q46.84 13.67 47.59 13.15L47.59 13.15L47.59 13.15Q48.34 12.63 49.40 12.63L49.40 12.63L49.40 12.63Q50.43 12.63 51.33 13.00L51.33 13.00L51.33 13.00Q51.78 13.19 52.05 13.51L52.05 13.51L52.05 13.51Q52.33 13.84 52.33 14.20L52.33 14.20L52.33 14.20Q52.33 14.55 52.05 14.77L52.05 14.77L52.05 14.77Q51.76 14.98 51.46 14.98L51.46 14.98L51.46 14.98Q51.15 14.98 51.05 14.92L51.05 14.92L51.05 14.92Q50.96 14.86 50.96 14.65L50.96 14.65L50.96 14.65Q50.96 13.33 49.55 13.33L49.55 13.33L49.55 13.33Q48.97 13.33 48.54 13.59L48.54 13.59L48.54 13.59Q48.11 13.84 48.11 14.25L48.11 14.25L48.11 14.25Q48.11 14.90 49.45 15.27L49.45 15.27L49.45 15.27Q49.66 15.33 49.96 15.40L49.96 15.40L49.96 15.40Q50.26 15.48 50.52 15.56L50.52 15.56L50.52 15.56Q50.77 15.64 51.05 15.75L51.05 15.75L51.05 15.75Q51.32 15.85 51.63 16.02L51.63 16.02L51.63 16.02Q51.94 16.19 52.13 16.39L52.13 16.39L52.13 16.39Q52.58 16.84 52.58 17.48L52.58 17.48L52.58 17.48Q52.58 18.12 52.14 18.59L52.14 18.59L52.14 18.59Q51.29 19.50 49.68 19.50L49.68 19.50L49.68 19.50Q48.64 19.50 47.76 19.15L47.76 19.15L47.76 19.15Q47.30 18.98 47.03 18.66L47.03 18.66L47.03 18.66Q46.76 18.35 46.76 17.99L46.76 17.99L46.76 17.99Q46.76 17.64 46.98 17.44L46.98 17.44L46.98 17.44Q47.21 17.25 47.50 17.25L47.50 17.25L47.50 17.25Q47.78 17.25 47.98 17.42L47.98 17.42L47.98 17.42Q48.19 17.60 48.19 17.87L48.19 17.87L48.19 17.87Q48.19 18.13 48.14 18.43L48.14 18.43L48.14 18.43Q48.86 18.70 49.68 18.70ZM56.71 18.70L56.71 18.70L56.71 18.70Q58.25 18.70 58.25 17.75L58.25 17.75L58.25 17.75Q58.25 17.04 56.86 16.64L56.86 16.64L56.86 16.64Q56.60 16.56 56.23 16.46L56.23 16.46L56.23 16.46Q55.54 16.28 55.30 16.18L55.30 16.18L55.30 16.18Q54.70 15.95 54.28 15.50L54.28 15.50L54.28 15.50Q53.87 15.06 53.87 14.45L53.87 14.45L53.87 14.45Q53.87 13.67 54.62 13.15L54.62 13.15L54.62 13.15Q55.36 12.63 56.42 12.63L56.42 12.63L56.42 12.63Q57.46 12.63 58.36 13.00L58.36 13.00L58.36 13.00Q58.80 13.19 59.08 13.51L59.08 13.51L59.08 13.51Q59.36 13.84 59.36 14.20L59.36 14.20L59.36 14.20Q59.36 14.55 59.07 14.77L59.07 14.77L59.07 14.77Q58.79 14.98 58.48 14.98L58.48 14.98L58.48 14.98Q58.18 14.98 58.08 14.92L58.08 14.92L58.08 14.92Q57.98 14.86 57.98 14.65L57.98 14.65L57.98 14.65Q57.98 13.33 56.58 13.33L56.58 13.33L56.58 13.33Q56 13.33 55.57 13.59L55.57 13.59L55.57 13.59Q55.14 13.84 55.14 14.25L55.14 14.25L55.14 14.25Q55.14 14.90 56.48 15.27L56.48 15.27L56.48 15.27Q56.69 15.33 56.99 15.40L56.99 15.40L56.99 15.40Q57.29 15.48 57.54 15.56L57.54 15.56L57.54 15.56Q57.80 15.64 58.07 15.75L58.07 15.75L58.07 15.75Q58.35 15.85 58.66 16.02L58.66 16.02L58.66 16.02Q58.97 16.19 59.16 16.39L59.16 16.39L59.16 16.39Q59.60 16.84 59.60 17.48L59.60 17.48L59.60 17.48Q59.60 18.12 59.17 18.59L59.17 18.59L59.17 18.59Q58.32 19.50 56.71 19.50L56.71 19.50L56.71 19.50Q55.67 19.50 54.78 19.15L54.78 19.15L54.78 19.15Q54.33 18.98 54.06 18.66L54.06 18.66L54.06 18.66Q53.79 18.35 53.79 17.99L53.79 17.99L53.79 17.99Q53.79 17.64 54.01 17.44L54.01 17.44L54.01 17.44Q54.24 17.25 54.52 17.25L54.52 17.25L54.52 17.25Q54.81 17.25 55.01 17.42L55.01 17.42L55.01 17.42Q55.21 17.60 55.21 17.87L55.21 17.87L55.21 17.87Q55.21 18.13 55.17 18.43L55.17 18.43L55.17 18.43Q55.89 18.70 56.71 18.70ZM61.79 19.32L61.79 19.32L61.79 19.32Q61.51 19.32 61.22 19.10L61.22 19.10L61.22 19.10Q60.93 18.88 60.93 18.54L60.93 18.54L60.93 18.54Q60.93 18.19 61.24 17.96L61.24 17.96L61.24 17.96Q61.56 17.73 61.88 17.73L61.88 17.73L61.88 17.73Q62.20 17.73 62.52 17.94L62.52 17.94L62.52 17.94Q62.85 18.15 62.85 18.44L62.85 18.44L62.85 18.44Q62.85 19.06 62.23 19.26L62.23 19.26L62.23 19.26Q62.07 19.32 61.79 19.32ZM65.05 14.98L65.05 14.98L65.05 14.98Q64.79 14.98 64.47 14.78L64.47 14.78L64.47 14.78Q64.16 14.58 64.16 14.26L64.16 14.26L64.16 14.26Q64.16 13.93 64.34 13.64L64.34 13.64L64.34 13.64Q64.52 13.36 64.82 13.18L64.82 13.18L64.82 13.18Q65.11 13.00 65.50 12.87L65.50 12.87L65.50 12.87Q66.21 12.65 67.03 12.65L67.03 12.65L67.03 12.65Q68.41 12.65 69.04 13.26L69.04 13.26L69.04 13.26Q69.67 13.87 69.67 15.28L69.67 15.28L69.66 17.29L69.66 17.29Q69.66 18.03 69.84 18.21L69.84 18.21L69.84 18.21Q69.89 18.26 70.14 18.33L70.14 18.33L70.14 18.33Q70.84 18.55 70.84 18.67L70.84 18.67L70.84 18.67Q70.84 19.39 69.37 19.39L69.37 19.39L69.37 19.39Q68.82 19.39 68.65 19.14L68.65 19.14L68.65 19.14Q68.48 18.89 68.47 18.25L68.47 18.25L68.47 18.25Q68.16 18.80 67.53 19.14L67.53 19.14L67.53 19.14Q66.90 19.48 66.19 19.48L66.19 19.48L66.19 19.48Q65.47 19.48 64.97 19.30L64.97 19.30L64.97 19.30Q64.47 19.11 64.16 18.70L64.16 18.70L64.16 18.70Q63.85 18.29 63.85 17.81L63.85 17.81L63.85 17.81Q63.85 17.33 63.96 17.04L63.96 17.04L63.96 17.04Q64.07 16.75 64.23 16.55L64.23 16.55L64.23 16.55Q64.39 16.35 64.68 16.19L64.68 16.19L64.68 16.19Q64.96 16.04 65.21 15.94L65.21 15.94L65.21 15.94Q65.45 15.85 65.84 15.78L65.84 15.78L65.84 15.78Q66.42 15.67 66.81 15.62L66.81 15.62L66.81 15.62Q67.20 15.58 67.21 15.57L67.21 15.57L67.21 15.57Q67.25 15.57 67.68 15.52L67.68 15.52L67.68 15.52Q68.11 15.48 68.35 15.34L68.35 15.34L68.35 15.34Q68.35 14.04 68.00 13.64L68.00 13.64L68.00 13.64Q67.70 13.30 66.99 13.30L66.99 13.30L66.99 13.30Q66.29 13.30 65.94 13.66L65.94 13.66L65.94 13.66Q65.58 14.02 65.58 14.80L65.58 14.80L65.59 14.95L65.59 14.95Q65.30 14.98 65.05 14.98ZM68.35 15.96L68.35 15.96L68.35 15.96Q67.89 16.13 67.30 16.19L67.30 16.19L67.30 16.19Q66.72 16.26 66.38 16.34L66.38 16.34L66.38 16.34Q66.05 16.43 65.82 16.56L65.82 16.56L65.82 16.56Q65.30 16.86 65.30 17.60L65.30 17.60L65.30 17.60Q65.30 18.77 66.67 18.77L66.67 18.77L66.67 18.77Q67.85 18.77 68.17 17.64L68.17 17.64L68.17 17.64Q68.35 17.00 68.35 15.96ZM77.64 16.17L77.64 16.17L77.64 16.17Q77.64 14.59 76.72 13.87L76.72 13.87L76.72 13.87Q76.24 13.50 75.58 13.50L75.58 13.50L75.58 13.50Q73.62 13.50 73.62 15.71L73.62 15.71L73.62 17.96L73.62 17.96Q74.17 18.68 75.52 18.68L75.52 18.68L75.52 18.68Q76.51 18.68 77.07 17.97L77.07 17.97L77.07 17.97Q77.64 17.26 77.64 16.17ZM73.23 22.12L73.23 22.12L72.64 22.13L72.64 22.13Q71.74 22.13 71.53 21.85L71.53 21.85L71.53 21.85Q71.44 21.73 71.44 21.56L71.44 21.56L71.44 21.56Q71.44 21.38 71.57 21.31L71.57 21.31L71.57 21.31Q71.71 21.25 71.88 21.24L71.88 21.24L71.88 21.24Q72.04 21.23 72.18 21.13L72.18 21.13L72.18 21.13Q72.32 21.03 72.32 20.82L72.32 20.82L72.32 14.65L72.32 14.65Q72.32 14.16 72.25 13.97L72.25 13.97L72.25 13.97Q72.17 13.78 71.92 13.69L71.92 13.69L71.92 13.69Q71.89 13.67 71.65 13.62L71.65 13.62L71.65 13.62Q71.13 13.49 71.13 13.28L71.13 13.28L71.13 13.28Q71.13 12.74 72.51 12.74L72.51 12.74L72.51 12.74Q73.09 12.74 73.32 12.88L73.32 12.88L73.32 12.88Q73.55 13.02 73.55 13.47L73.55 13.47L73.55 13.47Q73.55 13.60 73.55 13.67L73.55 13.67L73.55 13.67Q74.07 13.16 74.61 12.89L74.61 12.89L74.61 12.89Q75.14 12.63 75.97 12.63L75.97 12.63L75.97 12.63Q76.79 12.63 77.52 13.09L77.52 13.09L77.52 13.09Q78.24 13.56 78.61 14.32L78.61 14.32L78.61 14.32Q78.98 15.08 78.98 16.02L78.98 16.02L78.98 16.02Q78.98 17.50 78.00 18.46L78.00 18.46L78.00 18.46Q77.03 19.43 75.54 19.43L75.54 19.43L75.54 19.43Q74.70 19.43 73.62 18.87L73.62 18.87L73.62 20.82L73.62 20.82Q73.62 21.21 74.06 21.24L74.06 21.24L74.06 21.24Q74.50 21.26 74.50 21.59L74.50 21.59L74.50 21.59Q74.50 21.96 74.08 22.05L74.08 22.05L74.08 22.05Q73.78 22.12 73.23 22.12ZM85.70 16.17L85.70 16.17L85.70 16.17Q85.70 14.59 84.79 13.87L84.79 13.87L84.79 13.87Q84.31 13.50 83.64 13.50L83.64 13.50L83.64 13.50Q81.68 13.50 81.68 15.71L81.68 15.71L81.68 17.96L81.68 17.96Q82.24 18.68 83.59 18.68L83.59 18.68L83.59 18.68Q84.57 18.68 85.14 17.97L85.14 17.97L85.14 17.97Q85.70 17.26 85.70 16.17ZM81.29 22.12L81.29 22.12L80.71 22.13L80.71 22.13Q79.81 22.13 79.60 21.85L79.60 21.85L79.60 21.85Q79.50 21.73 79.50 21.56L79.50 21.56L79.50 21.56Q79.50 21.38 79.64 21.31L79.64 21.31L79.64 21.31Q79.78 21.25 79.94 21.24L79.94 21.24L79.94 21.24Q80.11 21.23 80.25 21.13L80.25 21.13L80.25 21.13Q80.38 21.03 80.38 20.82L80.38 20.82L80.38 14.65L80.38 14.65Q80.38 14.16 80.31 13.97L80.31 13.97L80.31 13.97Q80.24 13.78 79.99 13.69L79.99 13.69L79.99 13.69Q79.96 13.67 79.71 13.62L79.71 13.62L79.71 13.62Q79.20 13.49 79.20 13.28L79.20 13.28L79.20 13.28Q79.20 12.74 80.58 12.74L80.58 12.74L80.58 12.74Q81.16 12.74 81.39 12.88L81.39 12.88L81.39 12.88Q81.62 13.02 81.62 13.47L81.62 13.47L81.62 13.47Q81.62 13.60 81.61 13.67L81.61 13.67L81.61 13.67Q82.14 13.16 82.67 12.89L82.67 12.89L82.67 12.89Q83.21 12.63 84.03 12.63L84.03 12.63L84.03 12.63Q84.86 12.63 85.58 13.09L85.58 13.09L85.58 13.09Q86.30 13.56 86.67 14.32L86.67 14.32L86.67 14.32Q87.04 15.08 87.04 16.02L87.04 16.02L87.04 16.02Q87.04 17.50 86.07 18.46L86.07 18.46L86.07 18.46Q85.10 19.43 83.60 19.43L83.60 19.43L83.60 19.43Q82.76 19.43 81.68 18.87L81.68 18.87L81.68 20.82L81.68 20.82Q81.68 21.21 82.12 21.24L82.12 21.24L82.12 21.24Q82.56 21.26 82.56 21.59L82.56 21.59L82.56 21.59Q82.56 21.96 82.15 22.05L82.15 22.05L82.15 22.05Q81.85 22.12 81.29 22.12Z"></path></g><!----><!----></svg>